<svg id="Layer_1" data-name="Layer 1" xmlns="http://www.w3.org/2000/svg" viewBox="0 0 129.12 155.04"><defs><style>.cls-1{fill:#fefefe;}.cls-2{fill:#1ca2eb;}.cls-3{fill:#1ca2ea;}.cls-4{fill:#1da2ea;}.cls-5{fill:#1ea2e9;}.cls-6{fill:#1da2e9;}.cls-7{fill:#1ea1e8;}.cls-8{fill:#3b657d;}.cls-9{fill:#316380;}.cls-10{fill:#457b9a;}.cls-11{fill:#346785;}.cls-12{fill:#558eaf;}</style></defs><title>aquas-icon-colored</title><path class="cls-1" d="M747.36,402.72v59.52H618.24V406.8c.06.05.15.1.17.16a18.49,18.49,0,0,0,5.61,9.76,56.61,56.61,0,0,0,6.85,5.63c2.45,1.67,5.17,2.94,7.78,4.38,1.11.63,2.56,1,3.28,1.93a45.37,45.37,0,0,0,9.76,9.36,51.37,51.37,0,0,0,14.67,7,42.06,42.06,0,0,0,17.85,1.81,2,2,0,0,0,1.37-1,10.55,10.55,0,0,0,.47-6.86c-1.21-5.09-3.95-9.48-6.37-14q-2.55-4.77-5-9.62a1.71,1.71,0,0,1,.25-1.45,9.77,9.77,0,0,0,1.69-9.7c-1-2.87-2.13-5.71-3.28-8.77a6.71,6.71,0,0,0-.9,1c-1.38,2.14-2.66,4.34-4.1,6.44-1.19,1.73-2.57,3.34-4.74,3.87-.88.22-1.85.56-2.63-.3-2.46-2.74-5-5.37-7.34-8.23a48.37,48.37,0,0,1-6.66-11,27.61,27.61,0,0,1-1.75-17.86,46.54,46.54,0,0,1,5.7-13,7.79,7.79,0,0,0,.5-1.35l-.6-.18c-15.77,15.28-22.41,33.47-17.34,55.41-1,.11-2.07.21-3.13.36-4.3.61-8.06-.3-11-3.77a3.76,3.76,0,0,0-1.18-.61V307.2h76.32a6,6,0,0,1-1.38.46c-1.5.15-3,.07-4.51.36a57.28,57.28,0,0,0-6,1.61,39.63,39.63,0,0,0-5.56,2,38.52,38.52,0,0,0-11.24,8,35.72,35.72,0,0,0-9.48,22.26,1.11,1.11,0,0,1-.49.79,64.4,64.4,0,0,0-10.1,6.39,62.37,62.37,0,0,0-12.15,12.3,59.57,59.57,0,0,0-9,17.44,53.27,53.27,0,0,0-3,15.1c-.08,2.66-.18,5.33-.24,8a11.78,11.78,0,0,0,.23,1.76c-.1.77,0,1.45.9,1.67l5,1.24,1.68.4c0-.57-.05-1.13-.07-1.7-.11-2.4-.34-4.8-.3-7.2a65.88,65.88,0,0,1,.51-9,56.17,56.17,0,0,1,3.81-14.17c1.27-2.89,2.63-5.75,4.13-8.52A31.91,31.91,0,0,1,640.4,362c1.66-2.14,3.32-4.29,5.13-6.29a51.19,51.19,0,0,1,4.83-4.6,42.27,42.27,0,0,1,5.28-4c2.77-1.67,5.66-3.14,8.54-4.61a44.8,44.8,0,0,1,13-4.3c3.86-.65,7.77-1,11.65-1.52h8.81l7.62.54a12.24,12.24,0,0,1-2.16.68c-1.79.22-3.6.34-5.4.51l-10.47,1c-3.49.32-7,.61-10.47,1a4.91,4.91,0,0,0-1.38.6h0l.13.15.53.29h0l.48.25h0l.48.25h0l.48.25h0l.49.25h0l.49.25h0l.49.25h0l.48.25h0l.48.25h0l.48.25v0l.29.2h0l.74.35c.29.13.57.27.86.38a68.8,68.8,0,0,0,14.4,4c3.93.64,7.91,1,11.86,1.44,2,0,4.07.07,6.11,0,1.43,0,2.85-.15,4.28-.23,2.77-.36,5.56-.61,8.31-1.11a36.32,36.32,0,0,0,9.78-3.46c.73-.37.67-.75.14-1.25-1.6-1.51-3.17-3.05-4.79-4.54-1.23-1.13-2.46-2.27-3.78-3.28-2.17-1.65-4.34-3.32-6.64-4.77a40.37,40.37,0,0,0-5.39-2.68,43.13,43.13,0,0,0-13.32-3.67,1.5,1.5,0,0,0-.5-.2l-6,0a7.7,7.7,0,0,1-1.06.41c-2,.43-4,.72-6,1.27a29.36,29.36,0,0,0-4.69,1.82c-1.23.57-2.29,1.51-3.54,2-2.38,1-4.83,1.77-7.27,2.57-1.62.53-3.36.78-4.92,1.44-3.28,1.39-6.49,3-9.58,4.4,1.14-7.68,12.35-15.88,15.72-14.94a11.61,11.61,0,0,1-.51,1.77c-1,2.11-3,3.13-4.78,4.34-1.5,1-3.1,1.9-4.66,2.83l.12.45a3.16,3.16,0,0,0,1,.07,41.8,41.8,0,0,0,9.36-3.28,26.87,26.87,0,0,0,8.22-5.75c3.15-3.39,5.87-7.17,8.83-10.74,1.5-1.81,3.11-3.52,4.65-5.3a3,3,0,0,0,.37-.94h49.44v88.08c-.14-.92-.27-1.85-.42-2.77-.33-2-.7-4-1-6.06a55.16,55.16,0,0,0-7.37-19.51,34.93,34.93,0,0,0-3.29-4.32c-1.14-1.39-2.31-2.75-3.55-4.05a23.77,23.77,0,0,0-2.68-2.31c-1.4-1.06-2.86-2.05-4.28-3.07l-2.35,2.89c.33.29.6.58.92.81A40.87,40.87,0,0,1,733.05,367a59.59,59.59,0,0,1,5,8.67,49.38,49.38,0,0,1,4.29,18.44l.06,6.72a3.41,3.41,0,0,0-.1.46,51.78,51.78,0,0,1-2.64,14.37,58.28,58.28,0,0,1-8.85,17.27,49.12,49.12,0,0,1-8.45,9,78.72,78.72,0,0,1-7.65,5.28c-1.54,1-3.33,1.49-4.9,2.42-3.38,2-7.2,2.59-10.92,3.5a42.65,42.65,0,0,1-11.1.94,55,55,0,0,1-6.79-.55c-2.78-.4-5.55-.93-8.3-1.54a48.47,48.47,0,0,1-5.87-1.69c-1.8-.65-3.51-1.54-5.28-2.29-.64-.28-1.36-.4-2-.73-1.17-.64-2.29-1.38-3.43-2.05a38.55,38.55,0,0,1-3.58-2.1c-2.08-1.59-4.08-3.28-6.05-5a26.1,26.1,0,0,1-4.22-4.11,19.41,19.41,0,0,0-6-5.14c-2-1.21-3.92-2.42-5.91-3.6-1.34-.79-2.71-1.53-4.07-2.29l-.26.31c.88,1.81,1.72,3.65,2.66,5.43A61.49,61.49,0,0,0,643,446.48,52.91,52.91,0,0,0,650.5,452a85.92,85.92,0,0,0,10,5.18,58.37,58.37,0,0,0,26.9,4.51,80.49,80.49,0,0,0,9.17-1.09,60.19,60.19,0,0,0,13.47-4.29,61.81,61.81,0,0,0,16.29-10.52,76.42,76.42,0,0,0,6.86-7.3A51.53,51.53,0,0,0,742.05,424a100,100,0,0,0,3.32-10.32c.61-2.22.87-4.54,1.27-6.81C746.89,405.46,747.12,404.09,747.36,402.72Zm-49.17-16.89A6.87,6.87,0,1,0,691.3,379,6.77,6.77,0,0,0,698.19,385.83ZM707,396.32a5.63,5.63,0,0,0,5.7,5.78,5.51,5.51,0,0,0,5.78-5.72c-.09-3.52-2.11-5.58-5.86-5.66A5.42,5.42,0,0,0,707,396.32Zm-5.93,13.82c-2.59,0-3.93,1.22-3.93,3.58a3.86,3.86,0,0,0,7.71.14C704.87,411.87,703.71,409.79,701.11,410.14ZM656.45,350l.34.49a59.86,59.86,0,0,1,20.88-6.33c-2.75-2.2-4.1-2.55-6.89-1.53s-5.55,2.2-8.26,3.44a34.44,34.44,0,0,0-4.15,2.41A19.69,19.69,0,0,0,656.45,350Zm18.32-9.53v.17s0,0,0-.08A.23.23,0,0,0,674.77,340.48Z" transform="translate(-618.24 -307.2)"/><path class="cls-2" d="M618.24,406.08a3.76,3.76,0,0,1,1.18.61c2.9,3.47,6.66,4.38,11,3.77,1.06-.15,2.12-.25,3.13-.36-5.07-21.94,1.57-40.13,17.34-55.41l.6.18a7.79,7.79,0,0,1-.5,1.35,46.54,46.54,0,0,0-5.7,13A27.61,27.61,0,0,0,647,387.07a48.37,48.37,0,0,0,6.66,11c2.3,2.86,4.88,5.49,7.34,8.23.78.86,1.75.52,2.63.3,2.17-.53,3.55-2.14,4.74-3.87,1.44-2.1,2.72-4.3,4.1-6.44a6.71,6.71,0,0,1,.9-1c1.15,3.06,2.26,5.9,3.28,8.77a9.77,9.77,0,0,1-1.69,9.7,1.71,1.71,0,0,0-.25,1.45q2.41,4.84,5,9.62c2.42,4.54,5.16,8.93,6.37,14a10.55,10.55,0,0,1-.47,6.86,2,2,0,0,1-1.37,1A42.06,42.06,0,0,1,666.36,445a51.37,51.37,0,0,1-14.67-7,45.37,45.37,0,0,1-9.76-9.36c-.72-.93-2.17-1.3-3.28-1.93-2.61-1.44-5.33-2.71-7.78-4.38a56.61,56.61,0,0,1-6.85-5.63,18.49,18.49,0,0,1-5.61-9.76c0-.06-.11-.11-.17-.16Z" transform="translate(-618.24 -307.2)"/><path class="cls-3" d="M688.85,336.66c-3.88.5-7.79.87-11.65,1.52a44.8,44.8,0,0,0-13,4.3c-2.88,1.47-5.77,2.94-8.54,4.61a42.27,42.27,0,0,0-5.28,4,51.19,51.19,0,0,0-4.83,4.6c-1.81,2-3.47,4.15-5.13,6.29a31.91,31.91,0,0,0-3.11,4.41c-1.5,2.77-2.86,5.63-4.13,8.52a56.17,56.17,0,0,0-3.81,14.17,65.88,65.88,0,0,0-.51,9c0,2.4.19,4.8.3,7.2,0,.57.05,1.13.07,1.7l-1.68-.4-5-1.24c-.93-.22-1-.9-.9-1.67q0-4.87,0-9.75a53.27,53.27,0,0,1,3-15.1,59.57,59.57,0,0,1,9-17.44,62.37,62.37,0,0,1,12.15-12.3,64.4,64.4,0,0,1,10.1-6.39,1.11,1.11,0,0,0,.49-.79,35.72,35.72,0,0,1,9.48-22.26,38.52,38.52,0,0,1,11.24-8,39.63,39.63,0,0,1,5.56-2,57.28,57.28,0,0,1,6-1.61c1.47-.29,3-.21,4.51-.36a6,6,0,0,0,1.38-.46h3.36a3,3,0,0,1-.37.94c-1.54,1.78-3.15,3.49-4.65,5.3-3,3.57-5.68,7.35-8.83,10.74a26.87,26.87,0,0,1-8.22,5.75,41.8,41.8,0,0,1-9.36,3.28,3.16,3.16,0,0,1-1-.07l-.12-.45c1.56-.93,3.16-1.81,4.66-2.83,1.8-1.21,3.8-2.23,4.78-4.34a11.61,11.61,0,0,0,.51-1.77c-3.37-.94-14.58,7.26-15.72,14.94,3.09-1.43,6.3-3,9.58-4.4,1.56-.66,3.3-.91,4.92-1.44,2.44-.8,4.89-1.61,7.27-2.57,1.25-.51,2.31-1.45,3.54-2a29.36,29.36,0,0,1,4.69-1.82c2-.55,4-.84,6-1.27a7.7,7.7,0,0,0,1.06-.41l6.47.17a43.13,43.13,0,0,1,13.32,3.67,40.37,40.37,0,0,1,5.39,2.68c2.3,1.45,4.47,3.12,6.64,4.77,1.32,1,2.55,2.15,3.78,3.28,1.62,1.49,3.19,3,4.79,4.54.53.5.59.88-.14,1.25a36.32,36.32,0,0,1-9.78,3.46c-2.75.5-5.54.75-8.31,1.11h-9.5a4.17,4.17,0,0,0-.89.19c-4-.47-7.93-.8-11.86-1.44a68.8,68.8,0,0,1-14.4-4c-.29-.11-.57-.25-.86-.38l-.74-.35h0l-.29-.2v0l-.48-.25h0l-.48-.25h0l-.48-.25h0l-.49-.25h0l-.49-.25h0l-.49-.25h0l-.48-.25h0l-.48-.25h0l-.48-.25h0l-.53-.29-.13-.15h0a4.91,4.91,0,0,1,1.38-.6c3.48-.35,7-.64,10.47-1l10.47-1c1.8-.17,3.61-.29,5.4-.51a12.24,12.24,0,0,0,2.16-.68l-7.62-.54c-.25-.14-.5-.39-.75-.4q-3.64,0-7.31,0C689.35,336.28,689.1,336.53,688.85,336.66Z" transform="translate(-618.24 -307.2)"/><path class="cls-4" d="M742.37,394.09a49.38,49.38,0,0,0-4.29-18.44,59.59,59.59,0,0,0-5-8.67,40.87,40.87,0,0,0-9.72-10.09c-.32-.23-.59-.52-.92-.81l2.35-2.89c1.42,1,2.88,2,4.28,3.07a23.77,23.77,0,0,1,2.68,2.31c1.24,1.3,2.41,2.66,3.55,4.05a34.93,34.93,0,0,1,3.29,4.32,55.16,55.16,0,0,1,7.37,19.51c.31,2,.68,4,1,6.06.15.92.28,1.85.42,2.77v7.44c-.24,1.37-.47,2.74-.72,4.11-.4,2.27-.66,4.59-1.27,6.81A100,100,0,0,1,742.05,424a51.53,51.53,0,0,1-8.81,14.57,76.42,76.42,0,0,1-6.86,7.3,61.81,61.81,0,0,1-16.29,10.52,60.19,60.19,0,0,1-13.47,4.29,80.49,80.49,0,0,1-9.17,1.09,58.37,58.37,0,0,1-26.9-4.51,85.92,85.92,0,0,1-10-5.18,52.91,52.91,0,0,1-7.52-5.56,61.49,61.49,0,0,1-14.19-17.78c-.94-1.78-1.78-3.62-2.66-5.43l.26-.31c1.36.76,2.73,1.5,4.07,2.29,2,1.18,3.95,2.39,5.91,3.6a19.41,19.41,0,0,1,6,5.14,26.1,26.1,0,0,0,4.22,4.11c2,1.72,4,3.41,6.05,5a38.55,38.55,0,0,0,3.58,2.1c1.14.67,2.26,1.41,3.43,2.05.61.33,1.33.45,2,.73,1.77.75,3.48,1.64,5.28,2.29a48.47,48.47,0,0,0,5.87,1.69c2.75.61,5.52,1.14,8.3,1.54a55,55,0,0,0,6.79.55,42.65,42.65,0,0,0,11.1-.94c3.72-.91,7.54-1.5,10.92-3.5,1.57-.93,3.36-1.46,4.9-2.42a78.72,78.72,0,0,0,7.65-5.28,49.12,49.12,0,0,0,8.45-9,58.28,58.28,0,0,0,8.85-17.27,51.78,51.78,0,0,0,2.64-14.37,3.41,3.41,0,0,1,.1-.46c.12-.15.32-.3.33-.45,0-1.92,0-3.84,0-5.76C742.76,394.43,742.51,394.26,742.37,394.09Z" transform="translate(-618.24 -307.2)"/><path class="cls-4" d="M698.19,385.83a6.87,6.87,0,1,1,0-13.73,6.87,6.87,0,0,1,0,13.73Z" transform="translate(-618.24 -307.2)"/><path class="cls-5" d="M707,396.32a5.42,5.42,0,0,1,5.62-5.6c3.75.08,5.77,2.14,5.86,5.66a5.51,5.51,0,0,1-5.78,5.72A5.63,5.63,0,0,1,707,396.32Z" transform="translate(-618.24 -307.2)"/><path class="cls-6" d="M701.11,410.14c2.6-.35,3.76,1.73,3.78,3.72a3.86,3.86,0,0,1-7.71-.14C697.18,411.36,698.52,410.14,701.11,410.14Z" transform="translate(-618.24 -307.2)"/><path class="cls-7" d="M656.45,350a19.69,19.69,0,0,1,1.92-1.52,34.44,34.44,0,0,1,4.15-2.41c2.71-1.24,5.46-2.41,8.26-3.44s4.14-.67,6.89,1.53a59.86,59.86,0,0,0-20.88,6.33Z" transform="translate(-618.24 -307.2)"/><path class="cls-8" d="M708.49,349.88a4.17,4.17,0,0,1,.89-.19h9.5c-1.43.08-2.85.21-4.28.23C712.56,350,710.53,349.9,708.49,349.88Z" transform="translate(-618.24 -307.2)"/><path class="cls-9" d="M688.85,336.66c.25-.13.5-.38.75-.38q3.66,0,7.31,0c.25,0,.5.26.75.4Z" transform="translate(-618.24 -307.2)"/><path class="cls-10" d="M621.61,393.91q0,4.88,0,9.75a11.78,11.78,0,0,1-.23-1.76C621.43,399.24,621.53,396.57,621.61,393.91Z" transform="translate(-618.24 -307.2)"/><path class="cls-9" d="M742.37,394.09c.14.17.39.34.39.51,0,1.92,0,3.84,0,5.76,0,.15-.21.3-.33.45Z" transform="translate(-618.24 -307.2)"/><path class="cls-11" d="M703.19,324.93l-6.47-.17,6,0A1.5,1.5,0,0,1,703.19,324.93Z" transform="translate(-618.24 -307.2)"/><path class="cls-12" d="M680.63,343.68l.74.35Z" transform="translate(-618.24 -307.2)"/><path class="cls-12" d="M674.77,340.48a.23.23,0,0,1,0,.09s0,.05,0,.08Z" transform="translate(-618.24 -307.2)"/><path class="cls-12" d="M675.52,341.05l.53.29Z" transform="translate(-618.24 -307.2)"/><path class="cls-12" d="M676,341.34l.48.25Z" transform="translate(-618.24 -307.2)"/><path class="cls-12" d="M676.52,341.58l.48.25Z" transform="translate(-618.24 -307.2)"/><path class="cls-12" d="M677,341.82l.48.25Z" transform="translate(-618.24 -307.2)"/><path class="cls-12" d="M677.47,342.06l.49.25Z" transform="translate(-618.24 -307.2)"/><path class="cls-12" d="M678,342.3l.49.25Z" transform="translate(-618.24 -307.2)"/><path class="cls-12" d="M678.43,342.54l.49.25Z" transform="translate(-618.24 -307.2)"/><path class="cls-12" d="M678.92,342.78l.48.25Z" transform="translate(-618.24 -307.2)"/><path class="cls-12" d="M679.4,343l.48.25Z" transform="translate(-618.24 -307.2)"/><path class="cls-12" d="M679.88,343.26l.48.25Z" transform="translate(-618.24 -307.2)"/><polygon class="cls-12" points="57.16 33.71 57.15 33.7 57.04 33.71 57.16 33.71"/><path class="cls-12" d="M680.35,343.49l.29.2Z" transform="translate(-618.24 -307.2)"/></svg>