<svg id="Layer_1" data-name="Layer 1" xmlns="http://www.w3.org/2000/svg" viewBox="0 0 187.68 138.48"><defs><style>.cls-1{fill:#fefefe;}.cls-2{fill:#b1afaf;}.cls-3{fill:#c9c8c8;}.cls-4{fill:#8493a2;}.cls-5{fill:#c2cfe0;}.cls-6{fill:#8d8f94;}.cls-7{fill:#424041;}.cls-8{fill:#717579;}.cls-9{fill:#7d7e82;}.cls-10{fill:#8a8889;}.cls-11{fill:#5d5b5f;}.cls-12{fill:#716f70;}.cls-13{fill:#7b7f83;}.cls-14{fill:#84888d;}.cls-15{fill:#373435;}.cls-16{fill:#95a1ae;}.cls-17{fill:#908e8f;}.cls-18{fill:#929fac;}.cls-19{fill:#797778;}.cls-20{fill:#9b9a9a;}.cls-21{fill:#626264;}.cls-22{fill:#474446;}.cls-23{fill:#8494a2;}.cls-24{fill:#c1cede;}.cls-25{fill:#86888d;}</style></defs><title>pump-icon</title><path class="cls-1" d="M589.2,361V315.12H776.88V453.6H750l-.07-.27,0-.44q0-6.11,0-12.22a1.67,1.67,0,0,0-.19-.54l-.06,0a6.25,6.25,0,0,0-1.19-.23c-5.51,0-11,0-16.54,0V423.38l7.85-.08c.43-.06.86-.11,1.28-.18a10.93,10.93,0,0,0,8.65-9.82c.1-2.13.2-4.25.3-6.49,1.25,0,2.48,0,3.7,0,1.58,0,3.17-.11,4.75-.16l.08,0,.25-.06a3.76,3.76,0,0,0,3.12-3.9v-4c1,0,2,0,2.86,0,2.11-.07,4.23,0,6.31-.27a6.33,6.33,0,0,0,5.21-6q0-3.94,0-7.9a4,4,0,0,0-.06-.7,6.85,6.85,0,0,0-6.89-5.28c-2.47-.08-4.93,0-7.4,0,0-1.14,0-2.28,0-3.41,0-.88-.15-1.75-.23-2.63a3.1,3.1,0,0,0-2.54-2.85,7.63,7.63,0,0,0-1.23-.24c-2.65,0-5.3,0-8,0-.09-3.1,0-6.24-.34-9.31a9.44,9.44,0,0,0-5.39-7.7,32.58,32.58,0,0,0-4.37-1.49l-.76-.14-30.17,0a2.37,2.37,0,0,0-.74.24,5.61,5.61,0,0,0-.06.59q0,35.46,0,70.93a3.6,3.6,0,0,0,.26.93h4.81a6.3,6.3,0,0,1,.22,1.1q0,7.72,0,15.45l-1.44,0H659.83l-33.44,0,0,0V423.36l0,0,9.84-.05a6.61,6.61,0,0,0,.26-1.28q0-35,0-70c0-.4,0-.8,0-1.2a6,6,0,0,0-1.08-.24c-1.7,0-3.41,0-5.11,0,0-.44,0-.88,0-1.32q0-12.63,0-25.28l-.15-.76a7.92,7.92,0,0,0-.23-1.29c-1.41-4.33-4.51-6.33-8.94-6.53-2.72-.13-5.44-.08-8.16,0-5,.12-8.76,3.44-9.19,8.08l-.12.53V350.7H600a32.88,32.88,0,0,0-4.29,1.22c-4,1.65-5.89,4.83-6.33,9A.24.24,0,0,0,589.2,361Zm107.72,62.18c0-.43.08-.87.08-1.31V352.07c0-.39,0-.79-.06-1.19a6.55,6.55,0,0,0-1.22-.23h-48V352q0,35,0,69.93c0,.4,0,.79.08,1.19a6,6,0,0,0,1.09.21h46.94A5.21,5.21,0,0,0,696.92,423.14Zm-57.58.2,5.35,0a7.5,7.5,0,0,0,.18-1.14q0-35.09,0-70.19a5.44,5.44,0,0,0-.23-1.09l-5.3,0a5.21,5.21,0,0,0-.23,1.08q0,35.14,0,70.28A5.21,5.21,0,0,0,639.34,423.34Zm60.47-72.44a5.83,5.83,0,0,0-.21,1.09q0,35.1,0,70.2a7.41,7.41,0,0,0,.19,1.13l5.31-.19a.33.33,0,0,0,.1.06.11.11,0,0,0,.08,0c0-.32.08-.63.08-.94q0-35.16,0-70.31a4.74,4.74,0,0,0-.24-1.09Z" transform="translate(-589.2 -315.12)"/><path class="cls-1" d="M589.2,439.92V413.28a.69.69,0,0,0,.2,0,11.07,11.07,0,0,0,10.15,10l8.61.08a.17.17,0,0,0,0,.19v16.1a.17.17,0,0,0,0,.19l-18.7.06Z" transform="translate(-589.2 -315.12)"/><path class="cls-2" d="M749.93,453.33l.07.27H589.44v-.24H748.73Z" transform="translate(-589.2 -315.12)"/><path class="cls-3" d="M589.4,413.31a.69.69,0,0,1-.2,0V361a.24.24,0,0,1,.2,0c0,.4,0,.79,0,1.19v50.11C589.44,412.59,589.42,413,589.4,413.31Z" transform="translate(-589.2 -315.12)"/><path class="cls-3" d="M589.44,453.36v.24a3.29,3.29,0,0,1-.23-.84q0-6.42,0-12.84l.26,0a.26.26,0,0,0,0,.21Z" transform="translate(-589.2 -315.12)"/><path class="cls-4" d="M589.44,453.36q0-6.6,0-13.21c5.88,0,11.76,0,17.64,0a4.67,4.67,0,0,0,1.07-.27.17.17,0,0,1,0-.19,4.65,4.65,0,0,0,.23-1q0-7.05,0-14.1a4.65,4.65,0,0,0-.23-1,.17.17,0,0,1,0-.19,4.59,4.59,0,0,0-1.06-.27c-1.55,0-3.09,0-4.63,0-1,0-2,.12-2.92.19a11.07,11.07,0,0,1-10.15-10c0-.36,0-.72,0-1.08V362.12c0-.4,0-.79,0-1.19.44-4.18,2.37-7.36,6.33-9A32.88,32.88,0,0,1,600,350.7l3.58.18a5.72,5.72,0,0,0,.23-1.12q0-12.54,0-25.06a4.8,4.8,0,0,0-.3-1.2c.43-4.64,4.16-8,9.19-8.08,2.72-.06,5.44-.11,8.16,0,4.43.2,7.53,2.2,8.94,6.53a7.92,7.92,0,0,1,.23,1.29,5.29,5.29,0,0,0-.28,1.21q0,12.58,0,25.17a6,6,0,0,0,.25,1.23l.24-.25c1.7,0,3.41,0,5.11,0a6,6,0,0,1,1.08.24,11,11,0,0,0-.2,1.5q0,35.37,0,70.73c-2.88,0-5.76,0-8.64,0a5.92,5.92,0,0,0-1.21.25l0,0a3.93,3.93,0,0,0-.25,1q0,7.31,0,14.6a3.93,3.93,0,0,0,.25,1l0,0a5.88,5.88,0,0,0,1.22.25h85.91l.26-.26a5.19,5.19,0,0,0,.21-1q0-7.25,0-14.5a5.19,5.19,0,0,0-.21-1l-.49,0h-4.81v-.72q0-35.76,0-71.51h30.35a4.29,4.29,0,0,0,1.09-.29,32.58,32.58,0,0,1,4.37,1.49,9.44,9.44,0,0,1,5.39,7.7c.36,3.07.25,6.21.34,9.31,0,.07,0,.16,0,.2a.28.28,0,0,0,.2.08l9,0a3.1,3.1,0,0,1,2.54,2.85c0,1.78,0,3.56,0,5.35a2.37,2.37,0,0,0,.24.69c2.47,0,4.93,0,7.4,0a6.85,6.85,0,0,1,6.89,5.28,4,4,0,0,1,.06.7c-.07,2.1-.16,4.19-.2,6.29a11.09,11.09,0,0,0,.21,1.61,6.33,6.33,0,0,1-5.21,6c-2.08.27-4.2.2-6.31.27-.91,0-1.82,0-2.86,0v4a3.76,3.76,0,0,1-3.12,3.9l-.24-.22c-2.59,0-5.17,0-7.75,0a5.44,5.44,0,0,0-1.12.23c-.08,1.92-.18,3.84-.23,5.76a3.66,3.66,0,0,0,.26,1,10.93,10.93,0,0,1-8.65,9.82c-.42.07-.85.12-1.28.18h-8l-.06.31a4.52,4.52,0,0,0-.23,1q0,7.15,0,14.3a5.19,5.19,0,0,0,.21,1l.08.06a9.1,9.1,0,0,0,1.26.18c5.56,0,11.11,0,16.67,0l.06,0q0,6.11,0,12.21a1.8,1.8,0,0,0,.19.55l0,.44-1.2,0H589.44Z" transform="translate(-589.2 -315.12)"/><path class="cls-5" d="M705.1,423.13l-5.31.19c0-.52.05-1,.05-1.56V358.81c0-2.63,0-5.27,0-7.91l5.3-.07q0,25.95,0,51.92Q705.12,412.94,705.1,423.13Z" transform="translate(-589.2 -315.12)"/><path class="cls-5" d="M639.34,350.9l5.3,0V422c0,.43,0,.87.05,1.31l-5.35,0q0-21.88,0-43.77Q639.36,365.23,639.34,350.9Z" transform="translate(-589.2 -315.12)"/><path class="cls-6" d="M647.79,423.14c0-.4-.08-.79-.08-1.19q0-35,0-69.93v-1.38h48a6.55,6.55,0,0,1,1.22.23H649.37a9,9,0,0,0-1.36.22q0,36,0,72A.39.39,0,0,1,647.79,423.14Z" transform="translate(-589.2 -315.12)"/><path class="cls-7" d="M713.52,440.16H627.61a5.88,5.88,0,0,1-1.22-.25l33.44,0h52.25l1.44,0Z" transform="translate(-589.2 -315.12)"/><path class="cls-8" d="M636.24,423.12q0-35.37,0-70.73a11,11,0,0,1,.2-1.5c0,.4,0,.8,0,1.2q0,35,0,70a6.61,6.61,0,0,1-.26,1.28A1.48,1.48,0,0,0,636.24,423.12Z" transform="translate(-589.2 -315.12)"/><path class="cls-9" d="M639.34,350.9q0,14.33,0,28.67,0,21.89,0,43.77a5.21,5.21,0,0,1-.23-1.08q0-35.13,0-70.28A5.21,5.21,0,0,1,639.34,350.9Z" transform="translate(-589.2 -315.12)"/><path class="cls-10" d="M644.69,423.3c0-.44-.05-.88-.05-1.31V350.88a5.44,5.44,0,0,1,.23,1.09q0,35.1,0,70.19A7.5,7.5,0,0,1,644.69,423.3Z" transform="translate(-589.2 -315.12)"/><path class="cls-11" d="M699.81,350.9c0,2.64,0,5.28,0,7.91v62.95c0,.52,0,1-.05,1.56a7.41,7.41,0,0,1-.19-1.13q0-35.1,0-70.2A5.83,5.83,0,0,1,699.81,350.9Z" transform="translate(-589.2 -315.12)"/><path class="cls-12" d="M705.1,423.13q0-10.2,0-20.38,0-26,0-51.92a4.74,4.74,0,0,1,.24,1.09q0,35.16,0,70.31c0,.31-.05.62-.08.94a.11.11,0,0,1-.08,0A.33.33,0,0,1,705.1,423.13Z" transform="translate(-589.2 -315.12)"/><path class="cls-13" d="M708.5,351.11q0,35.76,0,71.51v.72a3.6,3.6,0,0,1-.26-.93q0-35.48,0-70.93a5.61,5.61,0,0,1,.06-.59h.21A1.79,1.79,0,0,0,708.5,351.11Z" transform="translate(-589.2 -315.12)"/><path class="cls-14" d="M696.72,350.88h.22c0,.4.06.8.06,1.19v69.76c0,.44,0,.88-.08,1.31a.28.28,0,0,1-.2,0q0-36,0-72C696.71,351,696.72,351,696.72,350.88Z" transform="translate(-589.2 -315.12)"/><path class="cls-15" d="M696.72,423.1a.28.28,0,0,0,.2,0,5.21,5.21,0,0,1-1.1.21H648.88a6,6,0,0,1-1.09-.21.39.39,0,0,0,.21,0Z" transform="translate(-589.2 -315.12)"/><path class="cls-16" d="M708.5,351.11a1.79,1.79,0,0,1,0-.23h29.33a10.74,10.74,0,0,0,1.37-.19l.76.14a4.29,4.29,0,0,1-1.09.29Z" transform="translate(-589.2 -315.12)"/><path class="cls-17" d="M739.18,350.68a10.74,10.74,0,0,1-1.37.19H708.27a2.37,2.37,0,0,1,.74-.24Z" transform="translate(-589.2 -315.12)"/><path class="cls-10" d="M603.6,350.88,600,350.7h3.39V324a10.86,10.86,0,0,1,.18,1.38Q603.61,338.15,603.6,350.88Z" transform="translate(-589.2 -315.12)"/><path class="cls-18" d="M630,350.87a6,6,0,0,1-.25-1.23q0-12.58,0-25.17a5.29,5.29,0,0,1,.28-1.21l.15.76a4.81,4.81,0,0,0-.19.9Q630,337.9,630,350.87Z" transform="translate(-589.2 -315.12)"/><path class="cls-16" d="M603.6,350.88q0-12.74,0-25.47a10.86,10.86,0,0,0-.18-1.38l.12-.53a4.8,4.8,0,0,1,.3,1.2q0,12.53,0,25.06A5.72,5.72,0,0,1,603.6,350.88Z" transform="translate(-589.2 -315.12)"/><path class="cls-19" d="M630,350.87q0-13,0-25.95a4.81,4.81,0,0,1,.19-.9q0,12.64,0,25.28c0,.44,0,.88,0,1.32Z" transform="translate(-589.2 -315.12)"/><path class="cls-20" d="M749.8,413.3a3.66,3.66,0,0,1-.26-1c.05-1.92.15-3.84.23-5.76l8.78.08c-1.58.05-3.17.13-4.75.16-1.22,0-2.45,0-3.7,0C750,409.05,749.9,411.17,749.8,413.3Z" transform="translate(-589.2 -315.12)"/><path class="cls-7" d="M749.75,440.16c-5.56,0-11.11,0-16.67,0a9.1,9.1,0,0,1-1.26-.18.43.43,0,0,0,.2-.07c5.52,0,11,0,16.54,0A6.25,6.25,0,0,1,749.75,440.16Z" transform="translate(-589.2 -315.12)"/><path class="cls-9" d="M713.52,440.16v-.27q0-7.72,0-15.45a6.3,6.3,0,0,0-.22-1.1l.49,0V439.9Z" transform="translate(-589.2 -315.12)"/><path class="cls-21" d="M626.42,439.92a3.93,3.93,0,0,1-.25-1q0-7.31,0-14.6a3.93,3.93,0,0,1,.25-1Z" transform="translate(-589.2 -315.12)"/><path class="cls-10" d="M732,439.9a.43.43,0,0,1-.2.07l-.08-.06q0-8.16,0-16.31l.06-.31a.37.37,0,0,1,.2.09Z" transform="translate(-589.2 -315.12)"/><path class="cls-2" d="M750,452.89a1.8,1.8,0,0,1-.19-.55q0-6.1,0-12.21a1.67,1.67,0,0,1,.19.54Q750,446.78,750,452.89Z" transform="translate(-589.2 -315.12)"/><path class="cls-15" d="M636.24,423.12a1.48,1.48,0,0,1,0,.21l-9.84.05a5.92,5.92,0,0,1,1.21-.25C630.48,423.11,633.36,423.12,636.24,423.12Z" transform="translate(-589.2 -315.12)"/><path class="cls-13" d="M759.22,369.58l-9,0a.28.28,0,0,1-.2-.08s0-.13,0-.2c2.65,0,5.3,0,8,0A7.63,7.63,0,0,1,759.22,369.58Z" transform="translate(-589.2 -315.12)"/><path class="cls-16" d="M758.55,406.64l-8.78-.08a5.44,5.44,0,0,1,1.12-.23c2.58,0,5.16,0,7.75,0v.28Z" transform="translate(-589.2 -315.12)"/><path class="cls-15" d="M732,423.38a.37.37,0,0,0-.2-.09h8Z" transform="translate(-589.2 -315.12)"/><path class="cls-13" d="M776.38,392.39a11.09,11.09,0,0,1-.21-1.61c0-2.1.13-4.19.2-6.29Q776.39,388.45,776.38,392.39Z" transform="translate(-589.2 -315.12)"/><path class="cls-22" d="M762,378.47a2.37,2.37,0,0,1-.24-.69c0-1.79,0-3.57,0-5.35.08.88.19,1.75.23,2.63C762,376.19,762,377.33,762,378.47Z" transform="translate(-589.2 -315.12)"/><path class="cls-20" d="M758.63,406.61v-.28l.24.22Z" transform="translate(-589.2 -315.12)"/><path class="cls-7" d="M608.16,439.88a4.67,4.67,0,0,1-1.07.27c-5.88,0-11.76,0-17.64,0a.26.26,0,0,1,0-.21Z" transform="translate(-589.2 -315.12)"/><path class="cls-14" d="M608.16,423.59a4.65,4.65,0,0,1,.23,1q0,7.05,0,14.1a4.65,4.65,0,0,1-.23,1Z" transform="translate(-589.2 -315.12)"/><path class="cls-15" d="M599.55,423.32c1-.07,1.94-.17,2.92-.19,1.54,0,3.08,0,4.63,0a4.59,4.59,0,0,1,1.06.27Z" transform="translate(-589.2 -315.12)"/><path class="cls-18" d="M713.78,439.9V423.38a5.19,5.19,0,0,1,.21,1q0,7.25,0,14.5A5.19,5.19,0,0,1,713.78,439.9Z" transform="translate(-589.2 -315.12)"/><path class="cls-18" d="M731.76,423.6q0,8.16,0,16.31a5.19,5.19,0,0,1-.21-1q0-7.15,0-14.3A4.52,4.52,0,0,1,731.76,423.6Z" transform="translate(-589.2 -315.12)"/><path class="cls-23" d="M696.72,423.1H648q0-36,0-72h48.7Q696.71,387.11,696.72,423.1Zm-42.48-41h35.1a9.27,9.27,0,0,0,1.37-.21l.1,0h.09a4.06,4.06,0,0,0,.28-1.06c0-1.56,0-3.12,0-4.67a16.7,16.7,0,0,0-.23-1.71h-.24a6.86,6.86,0,0,0-1.25-.23H656a6.86,6.86,0,0,0-1.25.23l-.48.25c-.08,2.06-.18,4.13-.23,6.2A5.92,5.92,0,0,0,654.24,382.08Zm36.93,23.51a3.47,3.47,0,0,0-.87-.22H655.21a3.85,3.85,0,0,0-1,.25v7.18a5.39,5.39,0,0,0,1.1.23q17.37,0,34.74,0a5.36,5.36,0,0,0,1.1-.22C691.18,410.4,691.17,408,691.17,405.59Zm-36.93-39.38a6.44,6.44,0,0,0,1.2.26h35.67v-7.61c-.39,0-.7-.07-1-.07H655.32a4.49,4.49,0,0,0-1.09.28Zm36.69,31.23a3,3,0,0,0,.26-.84c0-1.92,0-3.83,0-5.75a3,3,0,0,0-.25-.85H656.87c-2.92,0-2.61-.39-2.62,2.61,0,1.58,0,3.16,0,4.83Z" transform="translate(-589.2 -315.12)"/><path class="cls-16" d="M696.71,351.11H648a9,9,0,0,1,1.36-.22h47.35C696.72,351,696.71,351,696.71,351.11Z" transform="translate(-589.2 -315.12)"/><path class="cls-24" d="M690.93,397.44H654.25c0-1.67,0-3.25,0-4.83,0-3-.3-2.61,2.62-2.61h34.07C690.94,392.48,690.93,395,690.93,397.44Z" transform="translate(-589.2 -315.12)"/><path class="cls-5" d="M654.24,412.8v-7.18h36.69v7.16Z" transform="translate(-589.2 -315.12)"/><path class="cls-5" d="M654.24,366.21c0-2.37,0-4.75,0-7.12.32,0,.64,0,1,0h34.87c.27,0,.54,0,.81.07v7a2.35,2.35,0,0,1-.32.08Z" transform="translate(-589.2 -315.12)"/><path class="cls-5" d="M690.9,381.84h-.09l-.1,0q-17.44,0-34.89,0a10.78,10.78,0,0,1-1.39-.18l.08-7c2.84,0,5.67,0,8.51,0l27.91,0Z" transform="translate(-589.2 -315.12)"/><path class="cls-21" d="M654.24,366.21l36.31,0a2.35,2.35,0,0,0,.32-.08v-7c-.27,0-.54-.07-.81-.07H655.19c-.32,0-.64,0-1,0a4.49,4.49,0,0,1,1.09-.28h34.77c.32,0,.63,0,1,.07v7.61H655.44A6.44,6.44,0,0,1,654.24,366.21Z" transform="translate(-589.2 -315.12)"/><path class="cls-22" d="M654.24,412.8l36.69,0,.25,0a5.36,5.36,0,0,1-1.1.22q-17.37,0-34.74,0A5.39,5.39,0,0,1,654.24,412.8Z" transform="translate(-589.2 -315.12)"/><path class="cls-22" d="M690.93,405.62H654.24a3.85,3.85,0,0,1,1-.25H690.3a3.47,3.47,0,0,1,.87.22Z" transform="translate(-589.2 -315.12)"/><path class="cls-25" d="M690.93,374.67l-27.91,0c-2.84,0-5.67,0-8.51,0l-.27,0,.48-.25H691Z" transform="translate(-589.2 -315.12)"/><path class="cls-13" d="M654.43,381.65a10.78,10.78,0,0,0,1.39.18q17.45,0,34.89,0a9.27,9.27,0,0,1-1.37.21h-35.1Z" transform="translate(-589.2 -315.12)"/><path class="cls-16" d="M690.72,374.4h-36a6.86,6.86,0,0,1,1.25-.23h33.5A6.86,6.86,0,0,1,690.72,374.4Z" transform="translate(-589.2 -315.12)"/><path class="cls-16" d="M654.43,381.65l-.19.43a5.92,5.92,0,0,1-.23-1.23c0-2.07.15-4.14.23-6.2l.27,0C654.49,377,654.46,379.32,654.43,381.65Z" transform="translate(-589.2 -315.12)"/><path class="cls-11" d="M690.93,397.44c0-2.48,0-5,0-7.44a3,3,0,0,1,.25.85c0,1.92,0,3.83,0,5.75A3,3,0,0,1,690.93,397.44Z" transform="translate(-589.2 -315.12)"/><path class="cls-11" d="M690.93,374.67l0-.27a16.7,16.7,0,0,1,.23,1.71c0,1.55,0,3.11,0,4.67a4.06,4.06,0,0,1-.28,1.06Z" transform="translate(-589.2 -315.12)"/><path class="cls-21" d="M690.93,405.62l.24,0c0,2.4,0,4.81,0,7.22l-.25,0Z" transform="translate(-589.2 -315.12)"/></svg>